<?xml version="1.0" encoding="UTF-8"?>
<svg xmlns="http://www.w3.org/2000/svg" viewBox="133 -15.5 249 355.5" width="249" height="355.5" role="img" aria-label="Guitar fretboard diagram, C major, degree 2m, D minor (Dm7 color), fingering x-0-0-2-1-3 with fixed B1 and e3, context fingers 2 and 5 on B and e, low E muted">
  <rect x="133" y="-15.5" width="249" height="355.5" fill="#ffffff" rx="16" ry="16"/>
  <defs>
    <style>
      .bg { fill: #ffffff; }
      .board { fill: none; stroke: none; }
      .fret { stroke: #1f1f1f; stroke-width: 4; }
      .nut { stroke: #000000; stroke-width: 12; }
      .string { stroke: #111111; stroke-linecap: round; }
      .marker { fill: #9ca3af; opacity: 0.9; }
      .chord-2m { fill: #14b8a6; stroke: #0f766e; stroke-width: 2; }
      .chord-dot-25 { fill: #4b5563; stroke: #374151; stroke-width: 2; } /* fixed B1 + e3 */
      .degree-label { font: 700 22px Arial, Helvetica, sans-serif; text-anchor: middle; }
      .degree-iim { fill: #0f766e; }
      .finger-label { fill: #ffffff; font: 700 11px Arial, Helvetica, sans-serif; text-anchor: middle; dominant-baseline: middle; pointer-events: none; }
      .mute-label { font: 700 18px Arial, Helvetica, sans-serif; text-anchor: middle; dominant-baseline: middle; fill: #111111; }
    </style>
  </defs>

  <g transform="translate(12.5, 0)">
  <g transform="rotate(90, 255, 172.5)">
  <rect class="bg" x="95" y="58" width="320" height="245" rx="16"/>
  <rect class="board" x="110" y="70" width="300" height="220"/>

  <line class="nut" x1="130" y1="93" x2="130" y2="272"/>
  <line class="fret" x1="220" y1="95" x2="220" y2="270"/>
  <line class="fret" x1="310" y1="95" x2="310" y2="270"/>
  <line class="fret" x1="400" y1="95" x2="400" y2="270"/>

  <line class="string" x1="130" y1="95"  x2="400" y2="95"  style="stroke-width:4"/>
  <line class="string" x1="130" y1="130" x2="400" y2="130" style="stroke-width:4"/>
  <line class="string" x1="130" y1="165" x2="400" y2="165" style="stroke-width:4"/>
  <line class="string" x1="130" y1="200" x2="400" y2="200" style="stroke-width:4"/>
  <line class="string" x1="130" y1="235" x2="400" y2="235" style="stroke-width:4"/>
  <line class="string" x1="130" y1="270" x2="400" y2="270" style="stroke-width:4"/>

  <circle class="marker" cx="355" cy="182" r="13"/>

  <!-- x-0-0-2-1-3: (3) G2; open A+D; fixed (2) B1, (5) e3; Dm7 with common top; low E muted -->
  <text class="mute-label" x="113" y="270" transform="rotate(-90, 113, 270)">X</text>
  <circle class="chord-2m" cx="265" cy="165" r="12"/>
  <text class="finger-label" x="265" y="165" transform="rotate(-90, 265, 165)">3</text>
  <circle class="chord-dot-25" cx="175" cy="130" r="12"/>
  <text class="finger-label" x="175" y="130" transform="rotate(-90, 175, 130)">2</text>
  <circle class="chord-dot-25" cx="355" cy="95" r="12"/>
  <text class="finger-label" x="355" y="95" transform="rotate(-90, 355, 95)">5</text>
  </g>
  </g>

  <text class="degree-label degree-iim" x="257.5" y="10">2m</text>
</svg>
