<svg xmlns="http://www.w3.org/2000/svg" width="800" height="240" viewBox="0 0 800 240">
  <g stroke-linecap="round" stroke-linejoin="round" fill="none">
    <!-- x-axis -->
    <line x1="0" y1="120" x2="800" y2="120" stroke="#000" stroke-width="1"/>
    <!-- both waves at zero: t = k/440, k = 0..2 (viewBox x = 800 * t / T) -->
    <circle cx="0" cy="120" r="6" fill="none" stroke="red" stroke-width="2"/>
    <circle cx="320" cy="120" r="6" fill="none" stroke="red" stroke-width="2"/>
    <circle cx="640" cy="120" r="6" fill="none" stroke="red" stroke-width="2"/>
    <!-- 660 Hz (gray) -->
    <polyline points="0.00,120.00 5.00,109.73 10.00,99.68 15.00,90.07 20.00,81.11 25.00,72.99 30.00,65.89 35.00,59.96 40.00,55.33 45.00,52.10 50.00,50.34 55.00,50.08 60.00,51.35 65.00,54.09 70.00,58.27 75.00,63.78 80.00,70.50 85.00,78.30 90.00,87.00 95.00,96.42 100.00,106.34 105.00,116.57 110.00,126.86 115.00,137.01 120.00,146.79 125.00,155.99 130.00,164.41 135.00,171.87 140.00,178.20 145.00,183.28 150.00,186.99 155.00,189.24 160.00,190.00 165.00,189.24 170.00,186.99 175.00,183.28 180.00,178.20 185.00,171.87 190.00,164.41 195.00,155.99 200.00,146.79 205.00,137.01 210.00,126.86 215.00,116.57 220.00,106.34 225.00,96.42 230.00,87.00 235.00,78.30 240.00,70.50 245.00,63.78 250.00,58.27 255.00,54.09 260.00,51.35 265.00,50.08 270.00,50.34 275.00,52.10 280.00,55.33 285.00,59.96 290.00,65.89 295.00,72.99 300.00,81.11 305.00,90.07 310.00,99.68 315.00,109.73 320.00,120.00 325.00,130.27 330.00,140.32 335.00,149.93 340.00,158.89 345.00,167.01 350.00,174.11 355.00,180.04 360.00,184.67 365.00,187.90 370.00,189.66 375.00,189.92 380.00,188.65 385.00,185.91 390.00,181.73 395.00,176.22 400.00,169.50 405.00,161.70 410.00,153.00 415.00,143.58 420.00,133.66 425.00,123.43 430.00,113.14 435.00,102.99 440.00,93.21 445.00,84.01 450.00,75.59 455.00,68.13 460.00,61.80 465.00,56.72 470.00,53.01 475.00,50.76 480.00,50.00 485.00,50.76 490.00,53.01 495.00,56.72 500.00,61.80 505.00,68.13 510.00,75.59 515.00,84.01 520.00,93.21 525.00,102.99 530.00,113.14 535.00,123.43 540.00,133.66 545.00,143.58 550.00,153.00 555.00,161.70 560.00,169.50 565.00,176.22 570.00,181.73 575.00,185.91 580.00,188.65 585.00,189.92 590.00,189.66 595.00,187.90 600.00,184.67 605.00,180.04 610.00,174.11 615.00,167.01 620.00,158.89 625.00,149.93 630.00,140.32 635.00,130.27 640.00,120.00 645.00,109.73 650.00,99.68 655.00,90.07 660.00,81.11 665.00,72.99 670.00,65.89 675.00,59.96 680.00,55.33 685.00,52.10 690.00,50.34 695.00,50.08 700.00,51.35 705.00,54.09 710.00,58.27 715.00,63.78 720.00,70.50 725.00,78.30 730.00,87.00 735.00,96.42 740.00,106.34 745.00,116.57 750.00,126.86 755.00,137.01 760.00,146.79 765.00,155.99 770.00,164.41 775.00,171.87 780.00,178.20 785.00,183.28 790.00,186.99 795.00,189.24 800.00,190.00" stroke="#888" stroke-width="2"/>
    <!-- 440 Hz (black) -->
    <polyline points="0.00,120.00 5.00,113.14 10.00,106.34 15.00,99.68 20.00,93.21 25.00,87.00 30.00,81.11 35.00,75.59 40.00,70.50 45.00,65.89 50.00,61.80 55.00,58.27 60.00,55.33 65.00,53.01 70.00,51.35 75.00,50.34 80.00,50.00 85.00,50.34 90.00,51.35 95.00,53.01 100.00,55.33 105.00,58.27 110.00,61.80 115.00,65.89 120.00,70.50 125.00,75.59 130.00,81.11 135.00,87.00 140.00,93.21 145.00,99.68 150.00,106.34 155.00,113.14 160.00,120.00 165.00,126.86 170.00,133.66 175.00,140.32 180.00,146.79 185.00,153.00 190.00,158.89 195.00,164.41 200.00,169.50 205.00,174.11 210.00,178.20 215.00,181.73 220.00,184.67 225.00,186.99 230.00,188.65 235.00,189.66 240.00,190.00 245.00,189.66 250.00,188.65 255.00,186.99 260.00,184.67 265.00,181.73 270.00,178.20 275.00,174.11 280.00,169.50 285.00,164.41 290.00,158.89 295.00,153.00 300.00,146.79 305.00,140.32 310.00,133.66 315.00,126.86 320.00,120.00 325.00,113.14 330.00,106.34 335.00,99.68 340.00,93.21 345.00,87.00 350.00,81.11 355.00,75.59 360.00,70.50 365.00,65.89 370.00,61.80 375.00,58.27 380.00,55.33 385.00,53.01 390.00,51.35 395.00,50.34 400.00,50.00 405.00,50.34 410.00,51.35 415.00,53.01 420.00,55.33 425.00,58.27 430.00,61.80 435.00,65.89 440.00,70.50 445.00,75.59 450.00,81.11 455.00,87.00 460.00,93.21 465.00,99.68 470.00,106.34 475.00,113.14 480.00,120.00 485.00,126.86 490.00,133.66 495.00,140.32 500.00,146.79 505.00,153.00 510.00,158.89 515.00,164.41 520.00,169.50 525.00,174.11 530.00,178.20 535.00,181.73 540.00,184.67 545.00,186.99 550.00,188.65 555.00,189.66 560.00,190.00 565.00,189.66 570.00,188.65 575.00,186.99 580.00,184.67 585.00,181.73 590.00,178.20 595.00,174.11 600.00,169.50 605.00,164.41 610.00,158.89 615.00,153.00 620.00,146.79 625.00,140.32 630.00,133.66 635.00,126.86 640.00,120.00 645.00,113.14 650.00,106.34 655.00,99.68 660.00,93.21 665.00,87.00 670.00,81.11 675.00,75.59 680.00,70.50 685.00,65.89 690.00,61.80 695.00,58.27 700.00,55.33 705.00,53.01 710.00,51.35 715.00,50.34 720.00,50.00 725.00,50.34 730.00,51.35 735.00,53.01 740.00,55.33 745.00,58.27 750.00,61.80 755.00,65.89 760.00,70.50 765.00,75.59 770.00,81.11 775.00,87.00 780.00,93.21 785.00,99.68 790.00,106.34 795.00,113.14 800.00,120.00" stroke="#fff" stroke-width="2"/>
  </g>
</svg>