<svg xmlns="http://www.w3.org/2000/svg" width="400" height="240" viewBox="0 0 800 240">
  <rect width="100%" height="100%" fill="white"/>
  <g stroke-linecap="round" stroke-linejoin="round" fill="none">
    <!-- x-axis -->
    <line x1="0" y1="120" x2="800" y2="120" stroke="#000" stroke-width="1"/>
    <!-- both waves at zero: 440 Hz has zeros every 1/(2*440) => x = 160*n, n=0..5 -->
    <circle cx="0" cy="120" r="6" fill="none" stroke="red" stroke-width="2"/>
    <circle cx="160" cy="120" r="6" fill="none" stroke="red" stroke-width="2"/>
    <circle cx="320" cy="120" r="6" fill="none" stroke="red" stroke-width="2"/>
    <circle cx="480" cy="120" r="6" fill="none" stroke="red" stroke-width="2"/>
    <circle cx="640" cy="120" r="6" fill="none" stroke="red" stroke-width="2"/>
    <circle cx="800" cy="120" r="6" fill="none" stroke="red" stroke-width="2"/>
    <!-- 880 Hz (gray) -->
    <polyline points="0.00,120.00 5.00,106.34 10.00,93.21 15.00,81.11 20.00,70.50 25.00,61.80 30.00,55.33 35.00,51.35 40.00,50.00 45.00,51.35 50.00,55.33 55.00,61.80 60.00,70.50 65.00,81.11 70.00,93.21 75.00,106.34 80.00,120.00 85.00,133.66 90.00,146.79 95.00,158.89 100.00,169.50 105.00,178.20 110.00,184.67 115.00,188.65 120.00,190.00 125.00,188.65 130.00,184.67 135.00,178.20 140.00,169.50 145.00,158.89 150.00,146.79 155.00,133.66 160.00,120.00 165.00,106.34 170.00,93.21 175.00,81.11 180.00,70.50 185.00,61.80 190.00,55.33 195.00,51.35 200.00,50.00 205.00,51.35 210.00,55.33 215.00,61.80 220.00,70.50 225.00,81.11 230.00,93.21 235.00,106.34 240.00,120.00 245.00,133.66 250.00,146.79 255.00,158.89 260.00,169.50 265.00,178.20 270.00,184.67 275.00,188.65 280.00,190.00 285.00,188.65 290.00,184.67 295.00,178.20 300.00,169.50 305.00,158.89 310.00,146.79 315.00,133.66 320.00,120.00 325.00,106.34 330.00,93.21 335.00,81.11 340.00,70.50 345.00,61.80 350.00,55.33 355.00,51.35 360.00,50.00 365.00,51.35 370.00,55.33 375.00,61.80 380.00,70.50 385.00,81.11 390.00,93.21 395.00,106.34 400.00,120.00 405.00,133.66 410.00,146.79 415.00,158.89 420.00,169.50 425.00,178.20 430.00,184.67 435.00,188.65 440.00,190.00 445.00,188.65 450.00,184.67 455.00,178.20 460.00,169.50 465.00,158.89 470.00,146.79 475.00,133.66 480.00,120.00 485.00,106.34 490.00,93.21 495.00,81.11 500.00,70.50 505.00,61.80 510.00,55.33 515.00,51.35 520.00,50.00 525.00,51.35 530.00,55.33 535.00,61.80 540.00,70.50 545.00,81.11 550.00,93.21 555.00,106.34 560.00,120.00 565.00,133.66 570.00,146.79 575.00,158.89 580.00,169.50 585.00,178.20 590.00,184.67 595.00,188.65 600.00,190.00 605.00,188.65 610.00,184.67 615.00,178.20 620.00,169.50 625.00,158.89 630.00,146.79 635.00,133.66 640.00,120.00 645.00,106.34 650.00,93.21 655.00,81.11 660.00,70.50 665.00,61.80 670.00,55.33 675.00,51.35 680.00,50.00 685.00,51.35 690.00,55.33 695.00,61.80 700.00,70.50 705.00,81.11 710.00,93.21 715.00,106.34 720.00,120.00 725.00,133.66 730.00,146.79 735.00,158.89 740.00,169.50 745.00,178.20 750.00,184.67 755.00,188.65 760.00,190.00 765.00,188.65 770.00,184.67 775.00,178.20 780.00,169.50 785.00,158.89 790.00,146.79 795.00,133.66 800.00,120.00" stroke="#888" stroke-width="2"/>
    <!-- 440 Hz (black) -->
    <polyline points="0.00,120.00 5.00,113.14 10.00,106.34 15.00,99.68 20.00,93.21 25.00,87.00 30.00,81.11 35.00,75.59 40.00,70.50 45.00,65.89 50.00,61.80 55.00,58.27 60.00,55.33 65.00,53.01 70.00,51.35 75.00,50.34 80.00,50.00 85.00,50.34 90.00,51.35 95.00,53.01 100.00,55.33 105.00,58.27 110.00,61.80 115.00,65.89 120.00,70.50 125.00,75.59 130.00,81.11 135.00,87.00 140.00,93.21 145.00,99.68 150.00,106.34 155.00,113.14 160.00,120.00 165.00,126.86 170.00,133.66 175.00,140.32 180.00,146.79 185.00,153.00 190.00,158.89 195.00,164.41 200.00,169.50 205.00,174.11 210.00,178.20 215.00,181.73 220.00,184.67 225.00,186.99 230.00,188.65 235.00,189.66 240.00,190.00 245.00,189.66 250.00,188.65 255.00,186.99 260.00,184.67 265.00,181.73 270.00,178.20 275.00,174.11 280.00,169.50 285.00,164.41 290.00,158.89 295.00,153.00 300.00,146.79 305.00,140.32 310.00,133.66 315.00,126.86 320.00,120.00 325.00,113.14 330.00,106.34 335.00,99.68 340.00,93.21 345.00,87.00 350.00,81.11 355.00,75.59 360.00,70.50 365.00,65.89 370.00,61.80 375.00,58.27 380.00,55.33 385.00,53.01 390.00,51.35 395.00,50.34 400.00,50.00 405.00,50.34 410.00,51.35 415.00,53.01 420.00,55.33 425.00,58.27 430.00,61.80 435.00,65.89 440.00,70.50 445.00,75.59 450.00,81.11 455.00,87.00 460.00,93.21 465.00,99.68 470.00,106.34 475.00,113.14 480.00,120.00 485.00,126.86 490.00,133.66 495.00,140.32 500.00,146.79 505.00,153.00 510.00,158.89 515.00,164.41 520.00,169.50 525.00,174.11 530.00,178.20 535.00,181.73 540.00,184.67 545.00,186.99 550.00,188.65 555.00,189.66 560.00,190.00 565.00,189.66 570.00,188.65 575.00,186.99 580.00,184.67 585.00,181.73 590.00,178.20 595.00,174.11 600.00,169.50 605.00,164.41 610.00,158.89 615.00,153.00 620.00,146.79 625.00,140.32 630.00,133.66 635.00,126.86 640.00,120.00 645.00,113.14 650.00,106.34 655.00,99.68 660.00,93.21 665.00,87.00 670.00,81.11 675.00,75.59 680.00,70.50 685.00,65.89 690.00,61.80 695.00,58.27 700.00,55.33 705.00,53.01 710.00,51.35 715.00,50.34 720.00,50.00 725.00,50.34 730.00,51.35 735.00,53.01 740.00,55.33 745.00,58.27 750.00,61.80 755.00,65.89 760.00,70.50 765.00,75.59 770.00,81.11 775.00,87.00 780.00,93.21 785.00,99.68 790.00,106.34 795.00,113.14 800.00,120.00" stroke="#000" stroke-width="2"/>
  </g>
</svg>

