<svg xmlns="http://www.w3.org/2000/svg" width="800" height="240" viewBox="0 0 800 240">
  <g stroke-linecap="round" stroke-linejoin="round" fill="none">
    <line x1="0" y1="120" x2="800" y2="120" stroke="#000" stroke-width="1"/>

    <!-- both at zero: t=0 and first match at t=T -->
    <circle cx="0" cy="120" r="6" fill="none" stroke="red" stroke-width="2"/>
    <circle cx="800" cy="120" r="6" fill="none" stroke="red" stroke-width="2"/>

    <!-- small second: 440 Hz (black) and 16/15 * 440 Hz (gray) -->
    <polyline points="0.00,120.00 5.00,98.37 10.00,78.86 15.00,63.37 20.00,53.43 25.00,50.00 30.00,53.43 35.00,63.37 40.00,78.86 45.00,98.37 50.00,120.00 55.00,141.63 60.00,161.14 65.00,176.63 70.00,186.57 75.00,190.00 80.00,186.57 85.00,176.63 90.00,161.14 95.00,141.63 100.00,120.00 105.00,98.37 110.00,78.86 115.00,63.37 120.00,53.43 125.00,50.00 130.00,53.43 135.00,63.37 140.00,78.86 145.00,98.37 150.00,120.00 155.00,141.63 160.00,161.14 165.00,176.63 170.00,186.57 175.00,190.00 180.00,186.57 185.00,176.63 190.00,161.14 195.00,141.63 200.00,120.00 205.00,98.37 210.00,78.86 215.00,63.37 220.00,53.43 225.00,50.00 230.00,53.43 235.00,63.37 240.00,78.86 245.00,98.37 250.00,120.00 255.00,141.63 260.00,161.14 265.00,176.63 270.00,186.57 275.00,190.00 280.00,186.57 285.00,176.63 290.00,161.14 295.00,141.63 300.00,120.00 305.00,98.37 310.00,78.86 315.00,63.37 320.00,53.43 325.00,50.00 330.00,53.43 335.00,63.37 340.00,78.86 345.00,98.37 350.00,120.00 355.00,141.63 360.00,161.14 365.00,176.63 370.00,186.57 375.00,190.00 380.00,186.57 385.00,176.63 390.00,161.14 395.00,141.63 400.00,120.00 405.00,98.37 410.00,78.86 415.00,63.37 420.00,53.43 425.00,50.00 430.00,53.43 435.00,63.37 440.00,78.86 445.00,98.37 450.00,120.00 455.00,141.63 460.00,161.14 465.00,176.63 470.00,186.57 475.00,190.00 480.00,186.57 485.00,176.63 490.00,161.14 495.00,141.63 500.00,120.00 505.00,98.37 510.00,78.86 515.00,63.37 520.00,53.43 525.00,50.00 530.00,53.43 535.00,63.37 540.00,78.86 545.00,98.37 550.00,120.00 555.00,141.63 560.00,161.14 565.00,176.63 570.00,186.57 575.00,190.00 580.00,186.57 585.00,176.63 590.00,161.14 595.00,141.63 600.00,120.00 605.00,98.37 610.00,78.86 615.00,63.37 620.00,53.43 625.00,50.00 630.00,53.43 635.00,63.37 640.00,78.86 645.00,98.37 650.00,120.00 655.00,141.63 660.00,161.14 665.00,176.63 670.00,186.57 675.00,190.00 680.00,186.57 685.00,176.63 690.00,161.14 695.00,141.63 700.00,120.00 705.00,98.37 710.00,78.86 715.00,63.37 720.00,53.43 725.00,50.00 730.00,53.43 735.00,63.37 740.00,78.86 745.00,98.37 750.00,120.00 755.00,141.63 760.00,161.14 765.00,176.63 770.00,186.57 775.00,190.00 780.00,186.57 785.00,176.63 790.00,161.14 795.00,141.63 800.00,120.00" stroke="#888" stroke-width="2"/>
    <polyline points="0.00,120.00 5.00,99.68 10.00,81.11 15.00,65.89 20.00,55.33 25.00,50.34 30.00,51.35 35.00,58.27 40.00,70.50 45.00,87.00 50.00,106.34 55.00,126.86 60.00,146.79 65.00,164.41 70.00,178.20 75.00,186.99 80.00,190.00 85.00,186.99 90.00,178.20 95.00,164.41 100.00,146.79 105.00,126.86 110.00,106.34 115.00,87.00 120.00,70.50 125.00,58.27 130.00,51.35 135.00,50.34 140.00,55.33 145.00,65.89 150.00,81.11 155.00,99.68 160.00,120.00 165.00,140.32 170.00,158.89 175.00,174.11 180.00,184.67 185.00,189.66 190.00,188.65 195.00,181.73 200.00,169.50 205.00,153.00 210.00,133.66 215.00,113.14 220.00,93.21 225.00,75.59 230.00,61.80 235.00,53.01 240.00,50.00 245.00,53.01 250.00,61.80 255.00,75.59 260.00,93.21 265.00,113.14 270.00,133.66 275.00,153.00 280.00,169.50 285.00,181.73 290.00,188.65 295.00,189.66 300.00,184.67 305.00,174.11 310.00,158.89 315.00,140.32 320.00,120.00 325.00,99.68 330.00,81.11 335.00,65.89 340.00,55.33 345.00,50.34 350.00,51.35 355.00,58.27 360.00,70.50 365.00,87.00 370.00,106.34 375.00,126.86 380.00,146.79 385.00,164.41 390.00,178.20 395.00,186.99 400.00,190.00 405.00,186.99 410.00,178.20 415.00,164.41 420.00,146.79 425.00,126.86 430.00,106.34 435.00,87.00 440.00,70.50 445.00,58.27 450.00,51.35 455.00,50.34 460.00,55.33 465.00,65.89 470.00,81.11 475.00,99.68 480.00,120.00 485.00,140.32 490.00,158.89 495.00,174.11 500.00,184.67 505.00,189.66 510.00,188.65 515.00,181.73 520.00,169.50 525.00,153.00 530.00,133.66 535.00,113.14 540.00,93.21 545.00,75.59 550.00,61.80 555.00,53.01 560.00,50.00 565.00,53.01 570.00,61.80 575.00,75.59 580.00,93.21 585.00,113.14 590.00,133.66 595.00,153.00 600.00,169.50 605.00,181.73 610.00,188.65 615.00,189.66 620.00,184.67 625.00,174.11 630.00,158.89 635.00,140.32 640.00,120.00 645.00,99.68 650.00,81.11 655.00,65.89 660.00,55.33 665.00,50.34 670.00,51.35 675.00,58.27 680.00,70.50 685.00,87.00 690.00,106.34 695.00,126.86 700.00,146.79 705.00,164.41 710.00,178.20 715.00,186.99 720.00,190.00 725.00,186.99 730.00,178.20 735.00,164.41 740.00,146.79 745.00,126.86 750.00,106.34 755.00,87.00 760.00,70.50 765.00,58.27 770.00,51.35 775.00,50.34 780.00,55.33 785.00,65.89 790.00,81.11 795.00,99.68 800.00,120.00" stroke="#000" stroke-width="2"/>
  </g>
</svg>

